<svg id="logo" xmlns="http://www.w3.org/2000/svg" width="218.791" height="140.265" viewBox="0 0 218.791 140.265">
  <g id="Groupe_18" data-name="Groupe 18" transform="translate(17.588 129.923)">
    <g id="Groupe_17" data-name="Groupe 17">
      <path id="Tracé_50" data-name="Tracé 50" d="M45.5,168.7a4.223,4.223,0,0,1-3,1.147,3.841,3.841,0,0,1-4.192-3.979,3.931,3.931,0,0,1,4.192-4.067,4.129,4.129,0,0,1,2.9,1.18l-.994.936a2.755,2.755,0,0,0-1.909-.728,2.559,2.559,0,0,0-2.723,2.679,2.5,2.5,0,0,0,2.723,2.612,2.952,2.952,0,0,0,1.988-.782Z" transform="translate(-38.299 -159.529)" fill="#252f38"/>
      <path id="Tracé_51" data-name="Tracé 51" d="M49.947,168.181H45.813l-.678,1.454H43.519l3.547-7.717h1.627l3.547,7.717H50.613ZM47.88,163.54l-1.468,3.285h2.936Z" transform="translate(-36.646 -159.493)" fill="#252f38"/>
      <path id="Tracé_52" data-name="Tracé 52" d="M50.575,169.635v-7.717h1.48v7.717Z" transform="translate(-34.412 -159.493)" fill="#252f38"/>
      <path id="Tracé_53" data-name="Tracé 53" d="M57.924,163.846a2.288,2.288,0,0,0-1.875-.861c-1.107,0-1.639.452-1.639,1.027,0,.67.814.858,1.763.968,1.65.2,3.186.619,3.186,2.458,0,1.721-1.559,2.461-3.322,2.461-1.616,0-2.858-.486-3.446-1.9l1.243-.627A2.266,2.266,0,0,0,56.06,168.6c.937,0,1.82-.321,1.82-1.16,0-.725-.779-1.023-1.83-1.134-1.617-.188-3.107-.607-3.107-2.336,0-1.591,1.605-2.238,3.061-2.25a3.219,3.219,0,0,1,3.107,1.533Z" transform="translate(-33.773 -159.556)" fill="#252f38"/>
      <path id="Tracé_54" data-name="Tracé 54" d="M63.6,163.846a2.284,2.284,0,0,0-1.875-.861c-1.107,0-1.639.452-1.639,1.027,0,.67.814.858,1.763.968,1.65.2,3.186.619,3.186,2.458,0,1.721-1.559,2.461-3.322,2.461-1.616,0-2.858-.486-3.444-1.9l1.242-.627a2.268,2.268,0,0,0,2.226,1.223c.936,0,1.818-.321,1.818-1.16,0-.725-.779-1.023-1.83-1.134-1.616-.188-3.107-.607-3.107-2.336,0-1.591,1.605-2.238,3.061-2.25a3.221,3.221,0,0,1,3.107,1.533Z" transform="translate(-31.976 -159.556)" fill="#252f38"/>
      <path id="Tracé_55" data-name="Tracé 55" d="M70.187,169.635H64.266v-7.717h5.921v1.411H65.746V165.1h4.282v1.356H65.746V168.2h4.441Z" transform="translate(-30.076 -159.493)" fill="#252f38"/>
      <path id="Tracé_56" data-name="Tracé 56" d="M78.358,165.711a3.7,3.7,0,0,1-3.954,3.924H71.3v-7.717H74.4A3.69,3.69,0,0,1,78.358,165.711Zm-5.581,2.524H74.4a2.469,2.469,0,1,0,0-4.937H72.777Z" transform="translate(-27.85 -159.493)" fill="#252f38"/>
      <path id="Tracé_57" data-name="Tracé 57" d="M83.312,169.635H77.391v-7.717h5.921v1.411h-4.44V165.1h4.282v1.356H78.872V168.2h4.44Z" transform="translate(-25.92 -159.493)" fill="#252f38"/>
      <path id="Tracé_58" data-name="Tracé 58" d="M91.484,165.711a3.7,3.7,0,0,1-3.955,3.924H84.423v-7.717h3.106A3.69,3.69,0,0,1,91.484,165.711ZM85.9,168.235h1.626a2.469,2.469,0,1,0,0-4.937H85.9Z" transform="translate(-23.693 -159.493)" fill="#252f38"/>
      <path id="Tracé_59" data-name="Tracé 59" d="M96.437,170.2H90.516v-7.717h5.921v1.411H92v1.775h4.282v1.356H92v1.741h4.44Zm-1.1-10.065H93.714l-.836,1.5v.067H94.1l1.244-1.512Z" transform="translate(-21.764 -160.057)" fill="#252f38"/>
      <path id="Tracé_60" data-name="Tracé 60" d="M99.576,167.368H97.339v2.27h-1.49v-7.717c1.242,0,2.485-.012,3.727-.012A2.735,2.735,0,1,1,99.576,167.368Zm-2.237-1.335h2.237a1.367,1.367,0,1,0,0-2.732H97.339Z" transform="translate(-20.075 -159.496)" fill="#252f38"/>
      <path id="Tracé_61" data-name="Tracé 61" d="M109.507,166.405a4.062,4.062,0,0,1-8.122.011,4.061,4.061,0,1,1,8.122-.011Zm-6.653.032a2.592,2.592,0,1,0,5.184-.012,2.6,2.6,0,1,0-5.184.012Zm2.349-6.361h.757l1.672,1.523v.066h-1.4l-.654-.65-.644.65h-1.4V161.6Z" transform="translate(-18.322 -160.076)" fill="#252f38"/>
      <path id="Tracé_62" data-name="Tracé 62" d="M110.194,163.243h-2.508v-1.325h6.507v1.325h-2.507v6.392h-1.492Z" transform="translate(-16.327 -159.493)" fill="#252f38"/>
      <path id="Tracé_63" data-name="Tracé 63" d="M120.954,169.635h-5.921v-7.717h5.921v1.411h-4.44V165.1H120.8v1.356h-4.282V168.2h4.44Z" transform="translate(-14 -159.493)" fill="#252f38"/>
      <path id="Tracé_64" data-name="Tracé 64" d="M122.916,163.243h-2.507v-1.325h6.507v1.325h-2.51v6.392h-1.49Z" transform="translate(-12.298 -159.493)" fill="#252f38"/>
      <path id="Tracé_65" data-name="Tracé 65" d="M134.757,165.711a3.7,3.7,0,0,1-3.957,3.924h-3.1v-7.717h3.1A3.691,3.691,0,0,1,134.757,165.711Zm-5.58,2.524H130.8a2.469,2.469,0,1,0,0-4.937h-1.623Z" transform="translate(-9.99 -159.493)" fill="#252f38"/>
      <path id="Tracé_66" data-name="Tracé 66" d="M139.71,169.635h-5.92v-7.717h5.92v1.411h-4.438V165.1h4.282v1.356h-4.282V168.2h4.438Z" transform="translate(-8.06 -159.493)" fill="#252f38"/>
      <path id="Tracé_67" data-name="Tracé 67" d="M146.848,163.856a3.076,3.076,0,0,0-2.009-.772,2.661,2.661,0,0,0-2.723,2.844,2.473,2.473,0,0,0,2.723,2.579,2.676,2.676,0,0,0,1.784-.616v-1.367H144.6v-1.3h3.39v3.252a3.978,3.978,0,0,1-3.151,1.388c-2.972,0-4.18-1.908-4.18-3.936a3.969,3.969,0,0,1,4.18-4.178,4.232,4.232,0,0,1,2.937,1.18Z" transform="translate(-5.886 -159.546)" fill="#252f38"/>
      <path id="Tracé_68" data-name="Tracé 68" d="M153.059,169.635h-5.92v-7.717h5.92v1.411h-4.441V165.1H152.9v1.356h-4.282V168.2h4.441Z" transform="translate(-3.833 -159.493)" fill="#252f38"/>
      <path id="Tracé_69" data-name="Tracé 69" d="M157.682,163.846a2.29,2.29,0,0,0-1.875-.861c-1.106,0-1.639.452-1.639,1.027,0,.67.815.858,1.763.968,1.648.2,3.186.619,3.186,2.458,0,1.721-1.559,2.461-3.322,2.461-1.616,0-2.86-.486-3.447-1.9l1.244-.627a2.267,2.267,0,0,0,2.226,1.223c.936,0,1.817-.321,1.817-1.16,0-.725-.779-1.023-1.829-1.134-1.616-.188-3.106-.607-3.106-2.336,0-1.591,1.6-2.238,3.061-2.25a3.22,3.22,0,0,1,3.106,1.533Z" transform="translate(-2.184 -159.556)" fill="#252f38"/>
      <path id="Tracé_70" data-name="Tracé 70" d="M160.522,163.243h-2.507v-1.325h6.507v1.325h-2.507v6.392h-1.493Z" transform="translate(-0.389 -159.493)" fill="#252f38"/>
      <path id="Tracé_71" data-name="Tracé 71" d="M163.654,169.635v-7.717h1.481v7.717Z" transform="translate(1.396 -159.493)" fill="#252f38"/>
      <path id="Tracé_72" data-name="Tracé 72" d="M173.883,165.859a4.063,4.063,0,0,1-8.125.011,4.063,4.063,0,0,1,8.125-.011Zm-6.656.032a2.593,2.593,0,1,0,5.186-.012,2.6,2.6,0,1,0-5.186.012Z" transform="translate(2.063 -159.529)" fill="#252f38"/>
      <path id="Tracé_73" data-name="Tracé 73" d="M177.934,161.909h1.49v7.729H178.5v.012l-4.158-5.215v5.2h-1.49v-7.717h1.209l3.876,4.785Z" transform="translate(4.308 -159.496)" fill="#252f38"/>
    </g>
  </g>
  <g id="Groupe_19" data-name="Groupe 19" transform="translate(46.89 103.726)">
    <rect id="Rectangle_288" data-name="Rectangle 288" width="1.777" height="1.762" transform="translate(12.949 10.503)" fill="#252f38"/>
    <rect id="Rectangle_289" data-name="Rectangle 289" width="1.776" height="1.762" transform="translate(10.426 10.503)" fill="#252f38"/>
    <path id="Tracé_74" data-name="Tracé 74" d="M77.469,147.179H75.28v-4.865H73.5v4.865H63.868v-4.865H62.091v6.556c0,.786-.433,1.194-1.313,1.194h-.224v1.7h.238c1.627,0,2.986-.625,3.076-2.855H79.245v-6.6H77.469Z" transform="translate(-60.554 -139.504)" fill="#252f38"/>
    <rect id="Rectangle_290" data-name="Rectangle 290" width="1.776" height="1.762" transform="translate(16.915 10.503)" fill="#252f38"/>
    <rect id="Rectangle_291" data-name="Rectangle 291" width="1.776" height="1.734" transform="translate(26.966)" fill="#252f38"/>
    <rect id="Rectangle_292" data-name="Rectangle 292" width="1.777" height="1.734" transform="translate(29.488)" fill="#252f38"/>
    <path id="Tracé_75" data-name="Tracé 75" d="M89.192,147.855H87V142.99H85.225v4.865H81.485v-1.063a3.494,3.494,0,0,0-1.464-3.118,4.158,4.158,0,0,0-2.433-.7h-.582v1.734a5.338,5.338,0,0,1,1.359.144,2.134,2.134,0,0,1,.777.424,1.868,1.868,0,0,1,.552,1.527v1.049H75.767v1.734h15.2V140.18H89.192Z" transform="translate(-55.737 -140.179)" fill="#252f38"/>
    <rect id="Rectangle_293" data-name="Rectangle 293" width="1.777" height="9.41" transform="translate(36.57)" fill="#252f38"/>
    <path id="Tracé_76" data-name="Tracé 76" d="M90.718,144.951v1.311a2.6,2.6,0,0,0,2.807,2.65h.4v.5a.657.657,0,0,1-.105.365c-.09.159-.313.233-.657.233H90.718v1.762H93a2.393,2.393,0,0,0,2.718-2.577v-6.877H93.525A2.6,2.6,0,0,0,90.718,144.951Zm3.211,2.228h-.463c-.641,0-.97-.363-.97-1.076v-.993c0-.712.329-1.063.97-1.063h.463Z" transform="translate(-51.002 -139.504)" fill="#252f38"/>
    <path id="Tracé_77" data-name="Tracé 77" d="M99.4,149.467c0-.363.224-.554.673-.554h3.7v-1.734h-1.643a2.154,2.154,0,0,1-1.284-.277,1.451,1.451,0,0,1-.643-1.253,1.539,1.539,0,0,1,1.688-1.6h1.91v-1.734h-1.986a3.351,3.351,0,0,0-2.433.976,3.211,3.211,0,0,0-.97,2.406,2.528,2.528,0,0,0,.6,1.66,2.176,2.176,0,0,0-1.373,2.068,2.331,2.331,0,0,0,1.464,2.155,4.548,4.548,0,0,0,1.492.188h3.643v-1.762h-4.165C99.625,150.006,99.4,149.832,99.4,149.467Z" transform="translate(-48.811 -139.504)" fill="#252f38"/>
    <rect id="Rectangle_294" data-name="Rectangle 294" width="1.777" height="9.41" transform="translate(56.763)" fill="#252f38"/>
    <path id="Tracé_78" data-name="Tracé 78" d="M115.515,147.182h-3.742V146.12A3.5,3.5,0,0,0,110.31,143a4.158,4.158,0,0,0-2.433-.7H107.3v1.734a5.325,5.325,0,0,1,1.357.143,2.113,2.113,0,0,1,.777.424,1.864,1.864,0,0,1,.552,1.527v1.049h-3.926v1.734H117.29v-6.6h-1.775Z" transform="translate(-46.146 -139.507)" fill="#252f38"/>
    <rect id="Rectangle_295" data-name="Rectangle 295" width="1.775" height="1.762" transform="translate(69.37 10.503)" fill="#252f38"/>
    <rect id="Rectangle_296" data-name="Rectangle 296" width="1.777" height="1.762" transform="translate(66.846 10.503)" fill="#252f38"/>
    <path id="Tracé_79" data-name="Tracé 79" d="M121.351,147.855h-1.775V140.18H117.8v7.676h-2.2v1.734h7.555v-9.41h-1.808Z" transform="translate(-43.122 -140.18)" fill="#252f38"/>
    <path id="Tracé_80" data-name="Tracé 80" d="M116.6,149.529c0-.307.15-.467.417-.467h.612v-.685H117.1a1.15,1.15,0,0,0-1.193,1.18,1.2,1.2,0,0,0,.09.381h-.39v.669h2.3v-.669h-.822C116.768,149.937,116.6,149.8,116.6,149.529Z" transform="translate(-43.122 -137.584)" fill="#252f38"/>
    <rect id="Rectangle_297" data-name="Rectangle 297" width="1.779" height="9.41" transform="translate(81.37)" fill="#252f38"/>
    <rect id="Rectangle_298" data-name="Rectangle 298" width="1.794" height="1.734" transform="translate(90.502)" fill="#252f38"/>
    <rect id="Rectangle_299" data-name="Rectangle 299" width="1.791" height="1.734" transform="translate(93.026)" fill="#252f38"/>
    <path id="Tracé_81" data-name="Tracé 81" d="M129.63,145.038a3.931,3.931,0,0,0,3.389,3.862v.508c-.075.5-.225.6-.777.6H129.4c-.549,0-.7-.1-.776-.6V144.66h-1.776v4.531a2.391,2.391,0,0,0,2.715,2.577h2.51a2.392,2.392,0,0,0,2.716-2.577v-6.877h-2.075C130.451,142.314,129.63,143.481,129.63,145.038Zm3.389,2.141a2.616,2.616,0,0,1-1.554-2.125c0-.672.374-1.006,1.136-1.006h.417Z" transform="translate(-39.56 -139.504)" fill="#252f38"/>
    <path id="Tracé_82" data-name="Tracé 82" d="M133.9,144.951v1.311a2.6,2.6,0,0,0,2.807,2.65h.4v.5a.679.679,0,0,1-.1.365c-.09.159-.315.233-.657.233H133.9v1.762h2.287a2.392,2.392,0,0,0,2.716-2.577v-6.877h-2.2A2.6,2.6,0,0,0,133.9,144.951Zm3.211,2.228h-.462c-.641,0-.969-.363-.969-1.076v-.993c0-.712.328-1.063.969-1.063h.462Z" transform="translate(-37.329 -139.504)" fill="#252f38"/>
    <rect id="Rectangle_300" data-name="Rectangle 300" width="1.777" height="1.734" transform="translate(110.813)" fill="#252f38"/>
    <path id="Tracé_83" data-name="Tracé 83" d="M158.125,142.317h-4.777v4.865h-1v-2.824H150.54v2.824H148.4v-4.865h-1.777v4.865h-2.188V146.12A3.5,3.5,0,0,0,142.968,143a4.159,4.159,0,0,0-2.435-.7h-.583v1.734a5.341,5.341,0,0,1,1.36.143,2.123,2.123,0,0,1,.777.424,1.868,1.868,0,0,1,.552,1.527v1.049h-3.928v1.734h22.221v-3.962A2.6,2.6,0,0,0,158.125,142.317Zm1.028,4.865h-4.029v-3.131h3.059c.658,0,.97.35.97,1.063Z" transform="translate(-35.805 -139.507)" fill="#252f38"/>
  </g>
  <g id="Groupe_21" data-name="Groupe 21" transform="translate(34.789 120.44)">
    <g id="Groupe_20" data-name="Groupe 20">
      <path id="Tracé_84" data-name="Tracé 84" d="M57.3,157.314H54.986v2.973H53.62v-2.973H51.363v-1.309h2.248V152.99h1.376v2.98H57.3Z" transform="translate(-51.363 -152.837)" fill="#252f38"/>
      <path id="Tracé_85" data-name="Tracé 85" d="M56.685,157.607a1.683,1.683,0,0,1,.157-.715,1.939,1.939,0,0,1,.411-.582,1.887,1.887,0,0,1,.608-.388,2.066,2.066,0,0,1,1.5,0,1.877,1.877,0,0,1,1.022.97,1.682,1.682,0,0,1,.155.715,1.6,1.6,0,0,1-.29.982,1.847,1.847,0,0,1-.719.59,2.28,2.28,0,0,1-1.856,0,1.764,1.764,0,0,1-.706-.59A1.633,1.633,0,0,1,56.685,157.607Zm1.02-.051a.712.712,0,0,0,.07.305.954.954,0,0,0,.187.263.971.971,0,0,0,.635.232.865.865,0,0,0,.345-.062.97.97,0,0,0,.283-.17.758.758,0,0,0,.187-.263.79.79,0,0,0,0-.625.744.744,0,0,0-.187-.253,1.183,1.183,0,0,0-.283-.171.824.824,0,0,0-.345-.068.878.878,0,0,0-.346.068,1.1,1.1,0,0,0-.288.171.941.941,0,0,0-.187.253A.709.709,0,0,0,57.705,157.556Z" transform="translate(-49.678 -151.953)" fill="#252f38"/>
      <path id="Tracé_86" data-name="Tracé 86" d="M63.517,157.521v2.764H60.572v-1.344h1.547v-4.6H60.54v-1.351h2.966v3.177l1.253-.018v-3.182h2.959v1.368l-1.573-.012v4.6h1.546v1.343h-2.94v-2.762Z" transform="translate(-48.457 -152.845)" fill="#252f38"/>
      <path id="Tracé_87" data-name="Tracé 87" d="M68.442,160.354l-1.388,0v-7.361l1.388,0Z" transform="translate(-46.394 -152.839)" fill="#252f38"/>
      <path id="Tracé_88" data-name="Tracé 88" d="M75.33,160.607l-5.924-1.783,3.092-2.059-3.11-2.036,5.908-1.855v1.342l-3.114.906,2.65,1.563-2.408,1.643,2.906.906Z" transform="translate(-45.655 -152.874)" fill="#252f38"/>
      <path id="Tracé_89" data-name="Tracé 89" d="M80.116,160.314H74.848V152.96h5.2v1.384l-3.38,4.618H80.1Zm-1.521-6h-2.37v3.326Z" transform="translate(-43.926 -152.847)" fill="#252f38"/>
      <path id="Tracé_90" data-name="Tracé 90" d="M86.041,157.314H83.726v2.973H82.357v-2.973H80.1v-1.309h2.248V152.99h1.379v2.98h2.315Z" transform="translate(-42.263 -152.837)" fill="#252f38"/>
      <path id="Tracé_91" data-name="Tracé 91" d="M90.1,160.354l-1.388,0v-7.361l1.388,0Z" transform="translate(-39.535 -152.839)" fill="#252f38"/>
      <path id="Tracé_92" data-name="Tracé 92" d="M94.184,158.716a1.364,1.364,0,0,1,.147-.619,1.73,1.73,0,0,1,.39-.507,1.821,1.821,0,0,1,.579-.348,2.089,2.089,0,0,1,1.446,0,1.9,1.9,0,0,1,.579.348,1.708,1.708,0,0,1,.39.507,1.406,1.406,0,0,1,0,1.238,1.751,1.751,0,0,1-.39.517,1.651,1.651,0,0,1-.579.34,2.364,2.364,0,0,1-1.446,0,1.6,1.6,0,0,1-.579-.34,1.774,1.774,0,0,1-.39-.517A1.364,1.364,0,0,1,94.184,158.716Zm.05-4.115a1.411,1.411,0,0,1,.145-.633,1.677,1.677,0,0,1,.384-.506,1.869,1.869,0,0,1,.573-.346,1.848,1.848,0,0,1,.706-.132,1.913,1.913,0,0,1,.72.132,1.858,1.858,0,0,1,.577.346,1.648,1.648,0,0,1,.388.506,1.35,1.35,0,0,1,.151.633,1.329,1.329,0,0,1-.151.621,1.811,1.811,0,0,1-.388.516,1.627,1.627,0,0,1-.577.341,2.174,2.174,0,0,1-.72.117,2.1,2.1,0,0,1-.706-.117,1.633,1.633,0,0,1-.573-.341,1.847,1.847,0,0,1-.384-.516A1.39,1.39,0,0,1,94.234,154.6Zm.974,0a.562.562,0,0,0,.061.242.775.775,0,0,0,.162.215.864.864,0,0,0,.254.146.926.926,0,0,0,.321.057.816.816,0,0,0,.307-.057,1.1,1.1,0,0,0,.258-.146.674.674,0,0,0,.175-.215.593.593,0,0,0,.055-.242.659.659,0,0,0-.055-.273.6.6,0,0,0-.175-.209.949.949,0,0,0-.565-.184,1.027,1.027,0,0,0-.321.05.742.742,0,0,0-.254.134.683.683,0,0,0-.162.209A.622.622,0,0,0,95.208,154.6Zm.012,4.108a.672.672,0,0,0,.054.27.579.579,0,0,0,.161.221.861.861,0,0,0,.25.146A.883.883,0,0,0,96,159.4a.845.845,0,0,0,.557-.2.655.655,0,0,0,.167-.221.619.619,0,0,0,.062-.27.607.607,0,0,0-.062-.267.76.76,0,0,0-.167-.221.914.914,0,0,0-.249-.145A.8.8,0,0,0,96,158.02a.827.827,0,0,0-.312.057.922.922,0,0,0-.25.145.642.642,0,0,0-.215.488Z" transform="translate(-37.803 -152.839)" fill="#252f38"/>
      <path id="Tracé_93" data-name="Tracé 93" d="M105.226,156.649a3.561,3.561,0,0,1-1.134,2.653,3.722,3.722,0,0,1-2.606,1.031,3.452,3.452,0,0,1-2.616-1.094,3.722,3.722,0,0,1-1.056-2.6,3.607,3.607,0,0,1,1.1-2.65,3.815,3.815,0,0,1,2.567-1,3.553,3.553,0,0,1,2.706,1.092A3.643,3.643,0,0,1,105.226,156.649Zm-6.173,0a2.5,2.5,0,0,0,.194.982,2.679,2.679,0,0,0,.524.81,2.368,2.368,0,0,0,.786.544,2.315,2.315,0,0,0,.93.195,2.468,2.468,0,0,0,1-.195,2.5,2.5,0,0,0,.794-.544,2.6,2.6,0,0,0,.531-.81,2.527,2.527,0,0,0,.192-.982,2.609,2.609,0,0,0-.192-.993,2.428,2.428,0,0,0-.531-.812,2.544,2.544,0,0,0-.794-.544,2.336,2.336,0,0,0-.98-.2,2.311,2.311,0,0,0-.952.2,2.373,2.373,0,0,0-.787.544,2.527,2.527,0,0,0-.519.812A2.585,2.585,0,0,0,99.053,156.649Zm3.167-.009a.653.653,0,0,1-.232.49.437.437,0,0,1-.215.17.77.77,0,0,1-.287.051.654.654,0,0,1-.483-.221.7.7,0,0,1,.483-1.193.712.712,0,0,1,.519.207A.671.671,0,0,1,102.22,156.64Z" transform="translate(-36.654 -152.839)" fill="#252f38"/>
      <path id="Tracé_94" data-name="Tracé 94" d="M111.815,156.73a3.438,3.438,0,0,1-1.124,2.573,3.707,3.707,0,0,1-2.6,1.031,3.453,3.453,0,0,1-2.62-1.094,3.818,3.818,0,0,1-1.038-2.728,3.292,3.292,0,0,1,1.152-2.521,3.826,3.826,0,0,1,2.578-1,3.476,3.476,0,0,1,2.591,1.092A3.659,3.659,0,0,1,111.815,156.73Zm-6.159-.08a2.479,2.479,0,0,0,.191.982,2.606,2.606,0,0,0,.524.81,2.455,2.455,0,0,0,2.714.544,2.48,2.48,0,0,0,.793-.544,2.574,2.574,0,0,0,.529-.81,2.48,2.48,0,0,0,.192-.982,2.56,2.56,0,0,0-.192-.993,2.4,2.4,0,0,0-.529-.812,2.523,2.523,0,0,0-.793-.544,2.372,2.372,0,0,0-1.925,0,2.4,2.4,0,0,0-.789.544,2.433,2.433,0,0,0-.524.812A2.559,2.559,0,0,0,105.655,156.649Z" transform="translate(-34.558 -152.839)" fill="#252f38"/>
      <path id="Tracé_95" data-name="Tracé 95" d="M118.223,156.649a3.571,3.571,0,0,1-1.134,2.653,3.726,3.726,0,0,1-2.606,1.031,3.456,3.456,0,0,1-2.619-1.094,3.733,3.733,0,0,1-1.055-2.6,3.6,3.6,0,0,1,1.1-2.65,3.812,3.812,0,0,1,2.566-1,3.549,3.549,0,0,1,2.7,1.092A3.653,3.653,0,0,1,118.223,156.649Zm-6.175,0a2.529,2.529,0,0,0,.195.982,2.63,2.63,0,0,0,.524.81,2.4,2.4,0,0,0,.786.544,2.312,2.312,0,0,0,.931.195,2.479,2.479,0,0,0,1-.195,2.549,2.549,0,0,0,.791-.544,2.624,2.624,0,0,0,.531-.81,2.527,2.527,0,0,0,.192-.982,2.609,2.609,0,0,0-.192-.993,2.448,2.448,0,0,0-.531-.812,2.594,2.594,0,0,0-.791-.544,2.4,2.4,0,0,0-1.936,0,2.38,2.38,0,0,0-.786.544,2.527,2.527,0,0,0-.519.812A2.611,2.611,0,0,0,112.048,156.649Zm3.169-.009a.647.647,0,0,1-.234.49.432.432,0,0,1-.212.17.785.785,0,0,1-.287.051.667.667,0,0,1-.487-.221.668.668,0,0,1,0-.986.686.686,0,0,1,.487-.207.716.716,0,0,1,.519.207A.676.676,0,0,1,115.217,156.64Z" transform="translate(-32.538 -152.839)" fill="#252f38"/>
      <path id="Tracé_96" data-name="Tracé 96" d="M127.5,160.324l-1.385-.007-2.137-5.6-1.961,5.584H120.63l2.632-7.321h1.4Z" transform="translate(-29.429 -152.839)" fill="#252f38"/>
      <path id="Tracé_97" data-name="Tracé 97" d="M129.9,158.716a1.379,1.379,0,0,1,.145-.619,1.734,1.734,0,0,1,.391-.507,1.879,1.879,0,0,1,.582-.348,2.078,2.078,0,0,1,1.442,0,1.91,1.91,0,0,1,.582.348,1.828,1.828,0,0,1,.391.507,1.418,1.418,0,0,1,0,1.238,1.875,1.875,0,0,1-.391.517,1.663,1.663,0,0,1-.582.34,2.351,2.351,0,0,1-1.442,0,1.64,1.64,0,0,1-.582-.34,1.778,1.778,0,0,1-.391-.517A1.379,1.379,0,0,1,129.9,158.716Zm.049-4.115a1.411,1.411,0,0,1,.145-.633,1.592,1.592,0,0,1,.383-.506,1.927,1.927,0,0,1,.571-.346,1.883,1.883,0,0,1,.71-.132,1.916,1.916,0,0,1,.719.132,1.872,1.872,0,0,1,.579.346,1.689,1.689,0,0,1,.388.506,1.412,1.412,0,0,1,.146.633,1.391,1.391,0,0,1-.146.621,1.86,1.86,0,0,1-.388.516,1.639,1.639,0,0,1-.579.341,2.177,2.177,0,0,1-.719.117,2.139,2.139,0,0,1-.71-.117,1.676,1.676,0,0,1-.571-.341,1.746,1.746,0,0,1-.383-.516A1.39,1.39,0,0,1,129.947,154.6Zm.974,0a.549.549,0,0,0,.063.242.657.657,0,0,0,.159.215.889.889,0,0,0,.255.146.928.928,0,0,0,.319.057.828.828,0,0,0,.308-.057,1.057,1.057,0,0,0,.255-.146.629.629,0,0,0,.176-.215.572.572,0,0,0,.055-.242.638.638,0,0,0-.055-.273.568.568,0,0,0-.176-.209.877.877,0,0,0-.255-.134.917.917,0,0,0-.308-.05,1.028,1.028,0,0,0-.319.05.761.761,0,0,0-.255.134.588.588,0,0,0-.159.209A.606.606,0,0,0,130.921,154.6Zm.009,4.108a.721.721,0,0,0,.054.27.571.571,0,0,0,.163.221.819.819,0,0,0,.251.146.918.918,0,0,0,.62,0,.824.824,0,0,0,.246-.146.649.649,0,0,0,.171-.221.656.656,0,0,0,.059-.27.644.644,0,0,0-.059-.267.751.751,0,0,0-.171-.221.88.88,0,0,0-.246-.145.877.877,0,0,0-.62,0,.873.873,0,0,0-.251.145.649.649,0,0,0-.163.221A.708.708,0,0,0,130.93,158.71Z" transform="translate(-26.494 -152.839)" fill="#252f38"/>
      <path id="Tracé_98" data-name="Tracé 98" d="M140.939,156.649a3.568,3.568,0,0,1-1.131,2.653,3.729,3.729,0,0,1-2.606,1.031,3.455,3.455,0,0,1-2.62-1.094,3.746,3.746,0,0,1-1.056-2.6,3.608,3.608,0,0,1,1.1-2.65,3.813,3.813,0,0,1,2.568-1,3.545,3.545,0,0,1,2.7,1.092A3.625,3.625,0,0,1,140.939,156.649Zm-6.173,0a2.527,2.527,0,0,0,.192.982,2.73,2.73,0,0,0,.524.81,2.407,2.407,0,0,0,.789.544,2.3,2.3,0,0,0,.931.195,2.457,2.457,0,0,0,1-.195,2.509,2.509,0,0,0,.793-.544,2.6,2.6,0,0,0,.529-.81,2.482,2.482,0,0,0,.195-.982,2.562,2.562,0,0,0-.195-.993,2.425,2.425,0,0,0-.529-.812,2.553,2.553,0,0,0-.793-.544,2.34,2.34,0,0,0-.98-.2,2.308,2.308,0,0,0-.953.2,2.354,2.354,0,0,0-.786.544,2.533,2.533,0,0,0-.521.812A2.609,2.609,0,0,0,134.766,156.649Zm3.169-.009a.654.654,0,0,1-.237.49.437.437,0,0,1-.212.17.761.761,0,0,1-.284.051.663.663,0,0,1-.487-.221.668.668,0,0,1,0-.986.682.682,0,0,1,.487-.207.71.71,0,0,1,.516.207A.679.679,0,0,1,137.936,156.64Z" transform="translate(-25.345 -152.839)" fill="#252f38"/>
      <path id="Tracé_99" data-name="Tracé 99" d="M145.145,158.964v-5.959h1.377V160.3h-6.183v-7.294h1.388v5.959Z" transform="translate(-23.188 -152.833)" fill="#252f38"/>
      <path id="Tracé_100" data-name="Tracé 100" d="M146.072,158.716a1.378,1.378,0,0,1,.145-.619,1.78,1.78,0,0,1,.391-.507,1.8,1.8,0,0,1,.578-.348,2.1,2.1,0,0,1,1.448,0,1.922,1.922,0,0,1,.578.348,1.593,1.593,0,0,1,.386.507,1.394,1.394,0,0,1,0,1.238,1.633,1.633,0,0,1-.386.517,1.67,1.67,0,0,1-.578.34,2.372,2.372,0,0,1-1.448,0,1.578,1.578,0,0,1-.578-.34,1.826,1.826,0,0,1-.391-.517A1.378,1.378,0,0,1,146.072,158.716Zm.049-4.115a1.429,1.429,0,0,1,.145-.633,1.6,1.6,0,0,1,.386-.506,1.9,1.9,0,0,1,.569-.346,1.873,1.873,0,0,1,.71-.132,1.9,1.9,0,0,1,.718.132,1.857,1.857,0,0,1,.579.346,1.741,1.741,0,0,1,.391.506,1.411,1.411,0,0,1,.145.633,1.39,1.39,0,0,1-.145.621,1.922,1.922,0,0,1-.391.516,1.627,1.627,0,0,1-.579.341,2.158,2.158,0,0,1-.718.117,2.128,2.128,0,0,1-.71-.117,1.652,1.652,0,0,1-.569-.341,1.755,1.755,0,0,1-.386-.516A1.408,1.408,0,0,1,146.121,154.6Zm.974,0a.584.584,0,0,0,.062.242.741.741,0,0,0,.159.215.872.872,0,0,0,.255.146.917.917,0,0,0,.319.057.83.83,0,0,0,.309-.057,1.027,1.027,0,0,0,.258-.146.629.629,0,0,0,.176-.215.615.615,0,0,0,.055-.242.681.681,0,0,0-.055-.273.568.568,0,0,0-.176-.209.859.859,0,0,0-.258-.134.919.919,0,0,0-.309-.05,1.016,1.016,0,0,0-.319.05.749.749,0,0,0-.255.134.656.656,0,0,0-.159.209A.642.642,0,0,0,147.1,154.6Zm.009,4.108a.652.652,0,0,0,.055.27.582.582,0,0,0,.162.221.845.845,0,0,0,.25.146.9.9,0,0,0,.315.054.827.827,0,0,0,.3-.054.835.835,0,0,0,.251-.146.676.676,0,0,0,.169-.221.657.657,0,0,0,.061-.27.645.645,0,0,0-.061-.267.789.789,0,0,0-.169-.221.891.891,0,0,0-.251-.145.775.775,0,0,0-.3-.057.841.841,0,0,0-.315.057.9.9,0,0,0-.25.145.663.663,0,0,0-.162.221A.64.64,0,0,0,147.1,158.71Z" transform="translate(-21.372 -152.839)" fill="#252f38"/>
      <path id="Tracé_101" data-name="Tracé 101" d="M156.657,160.324l-1.386-.007-2.141-5.6-1.958,5.584h-1.385l2.632-7.321h1.406Z" transform="translate(-20.196 -152.839)" fill="#252f38"/>
      <path id="Tracé_102" data-name="Tracé 102" d="M162.7,160.324l-1.385-.007-2.137-5.6-1.959,5.584h-1.384l2.629-7.321h1.4Z" transform="translate(-18.28 -152.839)" fill="#252f38"/>
      <path id="Tracé_103" data-name="Tracé 103" d="M161.974,158.716a1.348,1.348,0,0,1,.147-.619,1.682,1.682,0,0,1,.388-.507,1.812,1.812,0,0,1,.583-.348,2.075,2.075,0,0,1,1.44,0,1.864,1.864,0,0,1,.582.348,1.7,1.7,0,0,1,.387.507,1.394,1.394,0,0,1,0,1.238,1.743,1.743,0,0,1-.387.517,1.628,1.628,0,0,1-.582.34,2.347,2.347,0,0,1-1.44,0,1.59,1.59,0,0,1-.583-.34,1.724,1.724,0,0,1-.388-.517A1.347,1.347,0,0,1,161.974,158.716Zm.049-4.115a1.411,1.411,0,0,1,.145-.633,1.682,1.682,0,0,1,.386-.506,1.934,1.934,0,0,1,1.278-.478,1.934,1.934,0,0,1,.722.132,1.889,1.889,0,0,1,.577.346,1.711,1.711,0,0,1,.388.506,1.38,1.38,0,0,1,.149.633,1.359,1.359,0,0,1-.149.621,1.886,1.886,0,0,1-.388.516,1.651,1.651,0,0,1-.577.341,2.2,2.2,0,0,1-.722.117,2.118,2.118,0,0,1-.707-.117,1.627,1.627,0,0,1-.571-.341,1.852,1.852,0,0,1-.386-.516A1.39,1.39,0,0,1,162.023,154.6Zm.977,0a.544.544,0,0,0,.061.242.68.68,0,0,0,.161.215.9.9,0,0,0,.254.146.924.924,0,0,0,.32.057.835.835,0,0,0,.309-.057,1.065,1.065,0,0,0,.253-.146.629.629,0,0,0,.176-.215.593.593,0,0,0,.055-.242.659.659,0,0,0-.055-.273.568.568,0,0,0-.176-.209.879.879,0,0,0-.253-.134.925.925,0,0,0-.309-.05,1.024,1.024,0,0,0-.32.05.767.767,0,0,0-.254.134.628.628,0,0,0-.221.482Zm.009,4.108a.7.7,0,0,0,.055.27.549.549,0,0,0,.159.221.819.819,0,0,0,.251.146.918.918,0,0,0,.62,0,.786.786,0,0,0,.245-.146.652.652,0,0,0,.172-.221.619.619,0,0,0,.062-.27.607.607,0,0,0-.062-.267.755.755,0,0,0-.172-.221.837.837,0,0,0-.245-.145.877.877,0,0,0-.62,0,.873.873,0,0,0-.251.145.621.621,0,0,0-.159.221A.684.684,0,0,0,163.009,158.71Z" transform="translate(-16.337 -152.839)" fill="#252f38"/>
    </g>
  </g>
  <g id="Groupe_261" data-name="Groupe 261">
    <path id="Tracé_104" data-name="Tracé 104" d="M92.815,61.526v68.12H67.547a25.591,25.591,0,0,1,0-51.18l18.643.012V61.4H67.547a42.669,42.669,0,0,0,0,85.337h42.132V78.594h24.339a25.473,25.473,0,0,1,0,50.946H116.111v17.2h17.907a42.654,42.654,0,0,0,42.6-42.574h.011c0-.113-.017-.224-.017-.337v-.041c.415-15.356,11.914-25.209,25.817-25.209A25.05,25.05,0,0,1,217.473,83.6l12.153-12.154A42.2,42.2,0,0,0,168.3,78.871a42.568,42.568,0,0,0-34.283-17.344Z" transform="translate(-24.941 -61.4)" fill="#252f38"/>
    <path id="Tracé_105" data-name="Tracé 105" d="M208.109,91.626H174.8v12.52h14.8a25.141,25.141,0,0,1-44.277,5.329,49.527,49.527,0,0,1-8.612,16.067,42.1,42.1,0,0,0,58.971-.209v12h12.654V91.626Z" transform="translate(10.453 -51.829)" fill="#5b790f"/>
  </g>
</svg>
